<svg width="40" height="40" viewBox="0 0 40 40" fill="none" xmlns="http://www.w3.org/2000/svg">
<rect width="40" height="40" rx="20" fill="#005E7B"/>
<path fill-rule="evenodd" clip-rule="evenodd" d="M6.36824 12.0186C6.04126 12.6604 6.04126 13.5005 6.04126 15.1806V20.0049C6.04126 21.685 6.04126 22.5251 6.36824 23.1668C6.65586 23.7313 7.1148 24.1903 7.67929 24.4779C8.32102 24.8049 9.1611 24.8049 10.8413 24.8049H14.7033C14.6776 24.2218 14.6776 23.5194 14.6776 22.6473V21.023C14.6776 18.7828 14.6776 17.6627 15.1136 16.8071C15.4971 16.0544 16.109 15.4425 16.8617 15.059C17.7173 14.623 18.8374 14.623 21.0776 14.623H23.8589C23.8549 13.3061 23.8211 12.5851 23.5325 12.0186C23.2448 11.4542 22.7859 10.9952 22.2214 10.7076C21.5797 10.3806 20.7396 10.3806 19.0594 10.3806H10.8413C9.1611 10.3806 8.32102 10.3806 7.67929 10.7076C7.1148 10.9952 6.65586 11.4542 6.36824 12.0186Z" fill="white"/>
<rect x="8.58673" y="12.926" width="3.39394" height="3.39394" rx="1" fill="#005E7B"/>
<rect x="8.58673" y="18.8655" width="7" height="1.69697" fill="#005E7B"/>
<path d="M20.3261 16.4716H29.3928C30.2494 16.4716 30.8317 16.4723 31.2818 16.5091C31.7202 16.5449 31.9444 16.6099 32.1008 16.6895C32.4771 16.8813 32.7831 17.1873 32.9748 17.5636C33.0545 17.72 33.1194 17.9442 33.1552 18.3826C33.192 18.8327 33.1928 19.415 33.1928 20.2716V25.0958C33.1928 25.9524 33.192 26.5347 33.1552 26.9848C33.1194 27.4232 33.0545 27.6474 32.9748 27.8038C32.7831 28.1801 32.4771 28.4861 32.1008 28.6778C31.9444 28.7575 31.7202 28.8224 31.2818 28.8582C30.8317 28.895 30.2494 28.8958 29.3928 28.8958H20.3261C19.4695 28.8958 18.8872 28.895 18.4372 28.8582C17.9987 28.8224 17.7745 28.7575 17.6181 28.6778C17.2418 28.4861 16.9359 28.1801 16.7441 27.8038C16.6644 27.6474 16.5995 27.4232 16.5637 26.9848C16.5269 26.5347 16.5261 25.9524 16.5261 25.0958V20.2716C16.5261 19.415 16.5269 18.8327 16.5637 18.3826C16.5995 17.9442 16.6644 17.72 16.7441 17.5636C16.9359 17.1873 17.2418 16.8813 17.6181 16.6895C17.7745 16.6099 17.9987 16.5449 18.4372 16.5091C18.8873 16.4723 19.4695 16.4716 20.3261 16.4716Z" fill="#005E7B" stroke="white" stroke-width="2"/>
<path fill-rule="evenodd" clip-rule="evenodd" d="M16.3746 18.8655H33.3443V20.5624H16.3746V18.8655Z" fill="white"/>
<path fill-rule="evenodd" clip-rule="evenodd" d="M18.92 23.9564H24.8594V25.6534H18.92V23.9564Z" fill="white"/>
<path fill-rule="evenodd" clip-rule="evenodd" d="M27.3636 23.7273C27.3636 23.175 27.8114 22.7273 28.3636 22.7273H29.7576C30.3099 22.7273 30.7576 23.175 30.7576 23.7273V25.1212C30.7576 25.6735 30.3099 26.1212 29.7576 26.1212H28.3636C27.8114 26.1212 27.3636 25.6735 27.3636 25.1212V23.7273Z" fill="white"/>
</svg>
