<svg width="40" height="40" viewBox="0 0 40 40" fill="none" xmlns="http://www.w3.org/2000/svg">
<rect width="40" height="40" rx="20" fill="#E1232E"/>
<path d="M24.5029 19.5966V21.7981H22.2658C22.0363 21.7981 21.8643 21.6146 21.8643 21.403V19.6107C21.8643 19.3849 22.0507 19.2155 22.2658 19.2155H24.087C24.3308 19.2014 24.5029 19.3708 24.5029 19.5966Z" fill="white"/>
<path d="M34.9857 20.4857H33.8672C33.8672 19.1733 32.7773 18.1008 31.4437 18.1008C30.3825 18.1008 29.4504 18.7781 29.1349 19.766C29.0632 20.0059 29.0202 20.2458 29.0202 20.4857V23.9856H28.9915C28.3892 23.9856 27.9016 23.5058 27.9016 22.913V20.4857H27.916C27.916 19.5261 28.3175 18.6088 29.0345 17.9455C29.6942 17.3387 30.5546 17 31.458 17C33.4083 17 34.9857 18.5665 34.9857 20.4857Z" fill="white"/>
<path d="M35 23.9859L33.4226 24L33.0354 23.619L32.175 22.7723L30.9847 21.601H32.5622L35 23.9859Z" fill="white"/>
<path d="M24.8758 22.8848H21.5058C21.09 22.8848 20.7601 22.5603 20.7601 22.151V18.8346C20.7601 18.4253 21.09 18.1008 21.5058 18.1008H24.8758C25.2917 18.1008 25.6215 18.4253 25.6215 18.8346V22.151L26.7401 23.2517V18.0725C26.7401 17.4798 26.2525 17 25.6502 17H20.7315C20.1292 17 19.6416 17.4798 19.6416 18.0725V22.913C19.6416 23.5058 20.1292 23.9856 20.7315 23.9856H25.9944L24.8758 22.8848Z" fill="white"/>
<path d="M11.1807 23.9997H9.60325L6.30497 20.7398V23.9997H5V17H6.30497V20.1188L9.47419 17H11.0229L7.58126 20.3587L11.1807 23.9997Z" fill="white"/>
<path d="M17.0747 17H18.351V23.9997H17.0747V20.9656H13.4323V23.9997H12.156V17H13.4323V19.9212H17.0747V17Z" fill="white"/>
</svg>
